<?xml version="1.0" encoding="utf-8"?>
<!-- Generator: Adobe Illustrator 16.0.0, SVG Export Plug-In . SVG Version: 6.00 Build 0)  -->
<!DOCTYPE svg PUBLIC "-//W3C//DTD SVG 1.1//EN" "http://www.w3.org/Graphics/SVG/1.1/DTD/svg11.dtd">
<svg version="1.1" id="Layer_1" xmlns="http://www.w3.org/2000/svg" xmlns:xlink="http://www.w3.org/1999/xlink" x="0px" y="0px"
	 width="295.667px" height="75.667px" viewBox="0 0 295.667 75.667" enable-background="new 0 0 295.667 75.667"
	 xml:space="preserve">
<g>
	<path fill="#CC0009" d="M27.699,30.044c0,0.847-0.253,1.752-0.76,2.714c-0.506,0.963-1.278,1.88-2.315,2.752
		c-1.038,0.871-2.345,1.573-3.922,2.104c-1.578,0.531-3.354,0.797-5.329,0.797c-4.2,0-7.479-1.224-9.836-3.673
		C3.179,32.29,2,29.007,2,24.889c0-2.789,0.539-5.254,1.619-7.396c1.079-2.142,2.64-3.797,4.682-4.968
		c2.042-1.17,4.482-1.755,7.321-1.755c1.759,0,3.375,0.258,4.843,0.772c1.47,0.515,2.715,1.179,3.735,1.992
		c1.021,0.813,1.801,1.681,2.341,2.603c0.54,0.921,0.81,1.78,0.81,2.577c0,0.813-0.303,1.503-0.909,2.067
		c-0.606,0.564-1.341,0.847-2.204,0.847c-0.564,0-1.034-0.145-1.407-0.436c-0.374-0.29-0.793-0.759-1.258-1.407
		c-0.831-1.261-1.698-2.208-2.603-2.839c-0.905-0.631-2.054-0.946-3.449-0.946c-2.009,0-3.627,0.785-4.856,2.353
		c-1.229,1.569-1.843,3.715-1.843,6.438c0,1.279,0.158,2.453,0.473,3.523c0.315,1.071,0.772,1.984,1.37,2.739
		c0.598,0.756,1.32,1.329,2.167,1.719s1.776,0.585,2.789,0.585c1.361,0,2.528-0.315,3.499-0.946
		c0.972-0.631,1.831-1.594,2.578-2.889c0.415-0.763,0.863-1.361,1.345-1.793c0.481-0.432,1.071-0.647,1.768-0.647
		c0.83,0,1.519,0.315,2.067,0.946C27.425,28.658,27.699,29.331,27.699,30.044z"/>
	<path fill="#CC0009" d="M57.076,24.64c0,2.026-0.315,3.894-0.946,5.603c-0.631,1.71-1.544,3.179-2.739,4.408
		c-1.195,1.229-2.624,2.171-4.283,2.826c-1.66,0.656-3.528,0.984-5.603,0.984c-2.059,0-3.91-0.333-5.553-0.996
		s-3.067-1.614-4.271-2.851s-2.116-2.698-2.739-4.383c-0.622-1.685-0.934-3.549-0.934-5.591c0-2.058,0.315-3.943,0.946-5.653
		c0.631-1.709,1.535-3.171,2.714-4.383c1.179-1.211,2.606-2.146,4.283-2.801c1.677-0.656,3.527-0.984,5.553-0.984
		c2.058,0,3.926,0.333,5.603,0.996c1.677,0.664,3.113,1.61,4.308,2.839c1.195,1.229,2.104,2.689,2.727,4.383
		C56.765,20.73,57.076,22.598,57.076,24.64z M50.253,24.64c0-2.772-0.61-4.931-1.831-6.475c-1.22-1.544-2.86-2.316-4.918-2.316
		c-1.329,0-2.499,0.345-3.511,1.034c-1.013,0.689-1.793,1.706-2.341,3.05s-0.822,2.914-0.822,4.707c0,1.777,0.27,3.329,0.81,4.657
		c0.539,1.329,1.311,2.345,2.315,3.05c1.004,0.706,2.188,1.059,3.549,1.059c2.058,0,3.698-0.776,4.918-2.328
		C49.643,29.525,50.253,27.379,50.253,24.64z"/>
	<path fill="#CC0009" d="M76.364,35.348l-6.001-9.861l-3.686,3.486v5.404c0,1.312-0.345,2.32-1.033,3.026
		c-0.689,0.705-1.482,1.058-2.378,1.058c-1.046,0-1.868-0.349-2.465-1.046s-0.896-1.727-0.896-3.088V5.341
		c0-1.51,0.29-2.66,0.872-3.449c0.581-0.789,1.411-1.183,2.49-1.183c1.046,0,1.876,0.357,2.49,1.071
		c0.614,0.714,0.921,1.768,0.921,3.163v16.485l7.645-8.019c0.946-0.996,1.668-1.677,2.167-2.042
		c0.498-0.365,1.104-0.548,1.818-0.548c0.847,0,1.552,0.27,2.117,0.809c0.564,0.54,0.847,1.217,0.847,2.03
		c0,0.996-0.921,2.325-2.764,3.984l-3.611,3.312l6.973,10.957c0.514,0.813,0.884,1.432,1.108,1.855
		c0.224,0.423,0.336,0.826,0.336,1.208c0,1.08-0.295,1.93-0.884,2.552c-0.59,0.623-1.366,0.934-2.329,0.934
		c-0.831,0-1.469-0.224-1.917-0.672S77.127,36.527,76.364,35.348z"/>
	<path fill="#CC0009" d="M104.699,26.309H91.401c0.016,1.544,0.328,2.905,0.934,4.084c0.605,1.179,1.411,2.067,2.415,2.665
		s2.113,0.896,3.325,0.896c0.813,0,1.556-0.095,2.229-0.286c0.672-0.191,1.323-0.49,1.955-0.896
		c0.631-0.407,1.211-0.843,1.743-1.308c0.531-0.464,1.22-1.096,2.067-1.893c0.349-0.299,0.847-0.448,1.494-0.448
		c0.697,0,1.261,0.191,1.693,0.573c0.432,0.382,0.647,0.921,0.647,1.619c0,0.614-0.241,1.332-0.722,2.154
		c-0.482,0.821-1.208,1.61-2.179,2.365c-0.971,0.756-2.191,1.382-3.66,1.88c-1.47,0.498-3.159,0.747-5.068,0.747
		c-4.367,0-7.761-1.245-10.185-3.735c-2.424-2.49-3.636-5.868-3.636-10.135c0-2.008,0.299-3.872,0.896-5.591
		c0.598-1.718,1.469-3.191,2.615-4.42c1.146-1.229,2.556-2.17,4.233-2.826c1.677-0.656,3.536-0.984,5.578-0.984
		c2.656,0,4.935,0.56,6.835,1.681c1.901,1.12,3.325,2.569,4.271,4.345c0.946,1.777,1.419,3.586,1.419,5.429
		c0,1.71-0.49,2.818-1.469,3.325C107.853,26.056,106.475,26.309,104.699,26.309z M91.401,22.449h12.327
		c-0.166-2.324-0.793-4.063-1.88-5.217c-1.088-1.154-2.52-1.731-4.296-1.731c-1.693,0-3.084,0.585-4.171,1.755
		C92.293,18.427,91.633,20.158,91.401,22.449z"/>
</g>
<g>
	<path fill="#575756" d="M146.16,24.376c0,8.108-5.1,13.667-12.851,13.667c-4.334,0-7.598-1.734-9.587-4.896v4.691h-5.865V0h5.865
		v15.4c1.989-3.162,5.252-4.896,9.485-4.896C140.907,10.505,146.16,16.115,146.16,24.376z M140.244,24.172
		c0-5.049-3.417-8.771-8.261-8.771c-4.845,0-8.261,3.672-8.261,8.771c0,5.252,3.417,8.873,8.261,8.873
		C136.828,33.045,140.244,29.373,140.244,24.172z"/>
	<path fill="#575756" d="M173.75,26.518h-20.5c0.918,4.182,4.13,6.782,8.414,6.782c2.958,0,5.661-1.122,7.649-3.162l3.111,3.314
		c-2.652,2.907-6.527,4.59-11.219,4.59c-8.363,0-13.871-5.559-13.871-13.718c0-8.21,5.661-13.769,13.718-13.82
		C170.588,10.505,174.463,16.727,173.75,26.518z M168.65,22.234c-0.204-4.385-3.111-7.037-7.547-7.037
		c-4.283,0-7.292,2.703-7.955,7.037H168.65z"/>
	<path fill="#575756" d="M192.532,34.524c-1.938,2.396-5.049,3.569-8.975,3.569c-5.865,0-9.536-3.621-9.536-8.414
		c0-4.946,3.723-8.108,10.25-8.159h8.21v-0.816c0-3.417-2.192-5.457-6.476-5.457c-2.601,0-5.304,0.918-8.006,2.754l-2.396-4.08
		c3.773-2.244,6.527-3.417,11.678-3.417c6.986,0,10.913,3.57,10.964,9.536l0.051,17.797h-5.762V34.524z M192.481,28.302v-2.499
		h-7.343c-3.825,0-5.609,1.02-5.609,3.621c0,2.448,1.989,4.028,5.252,4.028C188.962,33.453,192.175,31.26,192.481,28.302z"/>
	<path fill="#575756" d="M218.784,36.104c-2.142,1.275-4.385,1.989-6.68,1.989c-4.08,0-7.599-2.346-7.599-7.904V16.115h-3.824
		v-4.386h3.824V4.284h5.813v7.445h8.006v4.386h-8.006v13.003c0,2.805,1.071,3.672,2.907,3.672c1.224,0,2.498-0.408,4.079-1.173
		L218.784,36.104z"/>
	<path fill="#575756" d="M240.506,13.208l-2.142,4.334c-2.396-1.479-5.405-2.397-7.803-2.397c-2.294,0-3.978,0.765-3.978,2.703
		c0,4.997,14.432,2.294,14.381,12.137c0,5.558-4.946,8.057-10.403,8.057c-3.978,0-8.21-1.326-10.912-3.774l2.091-4.182
		c2.346,2.091,6.119,3.366,9.076,3.366c2.499,0,4.438-0.867,4.438-2.907c0-5.558-14.279-2.448-14.229-12.239
		c0-5.507,4.794-7.853,9.995-7.853C234.438,10.454,238.059,11.474,240.506,13.208z"/>
</g>
</svg>
